name ./resultDataOpenSim/trcMotMarkerGrf/sub10/grf-01-05.mot
datacolumns 19
datarows 15
range 0.48400000 0.54000000
endheader

                time	     ground_force_vx	     ground_force_vy	     ground_force_vz	     ground_force_px	     ground_force_py	     ground_force_pz	   l_ground_force_vx	   l_ground_force_vy	   l_ground_force_vz	   l_ground_force_px	   l_ground_force_py	   l_ground_force_pz	     ground_torque_x	     ground_torque_y	     ground_torque_z	   l_ground_torque_x	   l_ground_torque_y	   l_ground_torque_z	
          0.48400000	         23.91655751	        476.88403665	        -28.92940859	         -0.79404012	          0.00000000	          0.00303441	          0.00000000	          0.00000000	          0.00000000	          0.00000000	          0.00000000	          0.00000000	          0.00000000	          3.12228893	          0.00000000	          0.00000000	          0.00000000	          0.00000000	
          0.48800000	         26.39081849	        485.82740966	        -30.37898501	         -0.79228672	          0.00000000	          0.00299385	          0.00000000	          0.00000000	          0.00000000	          0.00000000	          0.00000000	          0.00000000	          0.00000000	          3.16949026	          0.00000000	          0.00000000	          0.00000000	          0.00000000	
          0.49200000	         29.18002533	        495.42942333	        -31.74212364	         -0.79045062	          0.00000000	          0.00292984	          0.00000000	          0.00000000	          0.00000000	          0.00000000	          0.00000000	          0.00000000	          0.00000000	          3.22202647	          0.00000000	          0.00000000	          0.00000000	          0.00000000	
          0.49600000	         32.19559030	        505.63521749	        -32.93185072	         -0.78851474	          0.00000000	          0.00284155	          0.00000000	          0.00000000	          0.00000000	          0.00000000	          0.00000000	          0.00000000	          0.00000000	          3.28575417	          0.00000000	          0.00000000	          0.00000000	          0.00000000	
          0.50000000	         35.30921891	        516.41489529	        -33.89248252	         -0.78647567	          0.00000000	          0.00272618	          0.00000000	          0.00000000	          0.00000000	          0.00000000	          0.00000000	          0.00000000	          0.00000000	          3.36390770	          0.00000000	          0.00000000	          0.00000000	          0.00000000	
          0.50400000	         38.37458947	        527.77808669	        -34.61240866	         -0.78431340	          0.00000000	          0.00258673	          0.00000000	          0.00000000	          0.00000000	          0.00000000	          0.00000000	          0.00000000	          0.00000000	          3.45655852	          0.00000000	          0.00000000	          0.00000000	          0.00000000	
          0.50800000	         41.25523029	        539.75731449	        -35.12726372	         -0.78202557	          0.00000000	          0.00242472	          0.00000000	          0.00000000	          0.00000000	          0.00000000	          0.00000000	          0.00000000	          0.00000000	          3.56048518	          0.00000000	          0.00000000	          0.00000000	          0.00000000	
          0.51200000	         43.85702326	        552.37418901	        -35.50780786	         -0.77961979	          0.00000000	          0.00223554	          0.00000000	          0.00000000	          0.00000000	          0.00000000	          0.00000000	          0.00000000	          0.00000000	          3.66960189	          0.00000000	          0.00000000	          0.00000000	          0.00000000	
          0.51600000	         46.14720547	        565.62569257	        -35.83804568	         -0.77710585	          0.00000000	          0.00202030	          0.00000000	          0.00000000	          0.00000000	          0.00000000	          0.00000000	          0.00000000	          0.00000000	          3.77599901	          0.00000000	          0.00000000	          0.00000000	          0.00000000	
          0.52000000	         48.15342159	        579.49237468	        -36.19375166	         -0.77449813	          0.00000000	          0.00178588	          0.00000000	          0.00000000	          0.00000000	          0.00000000	          0.00000000	          0.00000000	          0.00000000	          3.87140521	          0.00000000	          0.00000000	          0.00000000	          0.00000000	
          0.52400000	         49.95509329	        593.93409841	        -36.62644693	         -0.77182519	          0.00000000	          0.00153840	          0.00000000	          0.00000000	          0.00000000	          0.00000000	          0.00000000	          0.00000000	          0.00000000	          3.94864985	          0.00000000	          0.00000000	          0.00000000	          0.00000000	
          0.52800000	         51.67122687	        608.87793803	        -37.15474942	         -0.76912676	          0.00000000	          0.00127664	          0.00000000	          0.00000000	          0.00000000	          0.00000000	          0.00000000	          0.00000000	          0.00000000	          4.00265772	          0.00000000	          0.00000000	          0.00000000	          0.00000000	
          0.53200000	         53.43960835	        624.24132562	        -37.76521652	         -0.76644996	          0.00000000	          0.00099637	          0.00000000	          0.00000000	          0.00000000	          0.00000000	          0.00000000	          0.00000000	          0.00000000	          4.03071212	          0.00000000	          0.00000000	          0.00000000	          0.00000000	
          0.53600000	         55.39117201	        639.97775203	        -38.42159235	         -0.76385223	          0.00000000	          0.00069160	          0.00000000	          0.00000000	          0.00000000	          0.00000000	          0.00000000	          0.00000000	          0.00000000	          4.03206925	          0.00000000	          0.00000000	          0.00000000	          0.00000000	
          0.54000000	         57.63149024	        656.09029764	        -39.07798175	         -0.76138947	          0.00000000	          0.00035503	          0.00000000	          0.00000000	          0.00000000	          0.00000000	          0.00000000	          0.00000000	          0.00000000	          4.00729875	          0.00000000	          0.00000000	          0.00000000	          0.00000000	
